<?xml version="1.0" standalone="no"?><!DOCTYPE svg PUBLIC "-//W3C//DTD SVG 1.1//EN" "http://www.w3.org/Graphics/SVG/1.1/DTD/svg11.dtd"><svg t="1583465814426" class="icon" viewBox="0 0 1024 1024" version="1.1" xmlns="http://www.w3.org/2000/svg" p-id="1217" width="200" height="200" xmlns:xlink="http://www.w3.org/1999/xlink"><defs><style type="text/css"></style></defs><path d="M512.091028 951.571006H151.96733c-29.757649 0-53.788354-24.142998-53.788354-53.788354V126.217348c0-29.757649 24.142998-53.788354 53.788354-53.788354h720.135102c29.757649 0 53.788354 24.142998 53.788354 53.788354v352.038601c0 12.913697 6.849874 24.929049 18.079176 31.329751 11.229301 6.512995 25.041342 6.512995 36.15835 0 11.229301-6.512995 18.079175-18.416054 18.079176-31.329751V126.217348C998.095195 56.595679 941.724101 0.112293 871.990139 0H151.855037C82.233368 0.112293 25.749981 56.595679 25.637688 126.217348v771.565304c0.112293 69.621669 56.483386 126.105055 126.217349 126.217348h360.123698c19.988157 0 36.158351-16.170194 36.15835-36.158351s-16.170194-36.158351-36.15835-36.15835z m233.120298-689.703696c0-19.988157-16.170194-36.158351-36.158351-36.158351H232.256835c-19.988157 0-36.158351 16.170194-36.158351 36.158351s16.170194 36.158351 36.158351 36.158351h476.79614c19.988157 0 36.158351-16.170194 36.158351-36.158351zM427.422095 508.013598c0-19.988157-16.170194-36.158351-36.158351-36.158351H228.214287c-12.913697 0-24.929049 6.849874-31.329751 18.079176-6.512995 11.229301-6.512995 25.041342 0 36.15835 6.512995 11.229301 18.416054 18.079175 31.329751 18.079176h163.049457c19.988157 0 36.158351-16.170194 36.158351-36.158351zM228.101994 716.429433c-19.988157 0-36.158351 16.170194-36.158351 36.158351s16.170194 36.158351 36.158351 36.15835h163.049457c19.988157 0 36.158351-16.170194 36.158351-36.15835s-16.170194-36.158351-36.158351-36.158351H228.101994z m760.897466 185.058888L851.103639 763.143327c23.244654-33.126439 35.596886-72.541287 35.596885-112.966773 0-108.924224-88.262309-197.298827-197.298826-197.298826s-197.298827 88.262309-197.298827 197.298826 88.262309 197.298827 197.298827 197.298827c41.548415 0.112293 82.086194-13.138283 115.774098-37.505867l137.446649 137.895822c12.801404 12.576818 33.463318 12.576818 46.152429-0.224586 12.689111-12.689111 12.801404-33.351025 0.224586-46.152429zM689.401698 781.896261c-62.884088 0-117.009321-44.355741-129.24926-106.004606s20.774208-123.410023 78.829696-147.440728 125.094418-3.705669 160.017546 48.510582 28.073254 121.950214-16.39478 166.305955c-24.704463 24.816756-58.167782 38.74109-93.203202 38.628797z" p-id="1218" fill="#BFCBD9"></path></svg>